<?xml version="1.0" standalone="no"?>
<!DOCTYPE svg PUBLIC "-//W3C//DTD SVG 20010904//EN"
 "http://www.w3.org/TR/2001/REC-SVG-20010904/DTD/svg10.dtd">
<svg version="1.0" xmlns="http://www.w3.org/2000/svg"
 width="32.000000pt" height="32.000000pt" viewBox="0 0 32.000000 32.000000"
 preserveAspectRatio="xMidYMid meet">

<g transform="translate(0.000000,32.000000) scale(0.100000,-0.100000)"
fill="#000000" stroke="none">
<path d="M163 175 c-3 -9 -3 -18 -1 -21 3 -3 8 4 11 16 6 23 -1 27 -10 5z"/>
<path d="M101 156 c-9 -10 -7 -17 6 -27 16 -12 17 -12 6 2 -10 12 -10 18 -1
27 7 7 9 12 6 12 -3 0 -11 -6 -17 -14z"/>
<path d="M208 158 c9 -9 9 -15 -1 -27 -11 -14 -10 -14 6 -2 13 10 15 17 6 27
-6 8 -14 14 -17 14 -3 0 -1 -5 6 -12z"/>
<path d="M147 121 c-4 -17 -3 -21 5 -13 5 5 8 16 6 23 -3 8 -7 3 -11 -10z"/>
</g>
</svg>
