<svg xmlns="http://www.w3.org/2000/svg" height="1200" width="1600" version="1.1" xmlns:xlink="http://www.w3.org/1999/xlink" xmlns:svgjs="http://svgjs.com/svgjs"><rect fill="#f3ebe9" width="1600" height="1200"></rect><g><path d="M1175.36 286.73H788.47C767.75 286.73 750.89 303.5 750.89 324.31V572.78C750.89 593.51 767.67 610.37 788.47 610.37H1175.44C1196.17 610.37 1213.03 593.59 1213.03 572.78V324.31C1212.95 303.5 1196.09 286.73 1175.36 286.73Z" fill="#3c2c5b" opacity="1" stroke-width="4" stroke="#000000"></path><path d="M796.37 345.78C803.86 345.78 809.94 339.7 809.94 332.21 809.94 324.72 803.86 318.64 796.37 318.64 788.87 318.64 782.8 324.72 782.8 332.21 782.8 339.7 788.87 345.78 796.37 345.78Z" fill="#ffffff" opacity="1" stroke-width="4" stroke="#000000"></path><path d="M836.92 345.78C844.41 345.78 850.49 339.7 850.49 332.21 850.49 324.72 844.41 318.64 836.92 318.64 829.42 318.64 823.35 324.72 823.35 332.21 823.35 339.7 829.42 345.78 836.92 345.78Z" fill="#ffffff" opacity="1" stroke-width="4" stroke="#000000"></path><path d="M877.46 345.78C884.96 345.78 891.04 339.7 891.04 332.21 891.04 324.72 884.96 318.64 877.46 318.64 869.97 318.64 863.89 324.72 863.89 332.21 863.89 339.7 869.97 345.78 877.46 345.78Z" fill="#ffffff" opacity="1" stroke-width="4" stroke="#000000"></path></g><g><path d="M860.2 541.33V408.12C860.2 399.73 867 392.94 875.39 392.94H1092.29C1100.68 392.94 1107.47 399.73 1107.47 408.12V541.33H860.2Z" fill="#9e76dd" opacity="1" stroke-width="4" stroke="#000000"></path><path d="M893.66 468.86C888.81 468.86 884.92 464.88 884.92 460.12V376.16C884.92 371.31 888.89 367.42 893.66 367.42H978.5C983.35 367.42 987.24 371.4 987.24 376.16V460.12C987.24 464.97 983.26 468.86 978.5 468.86H893.66V468.86ZM893.66 370.95C890.84 370.95 888.45 373.25 888.45 376.16V460.12C888.45 462.94 890.75 465.33 893.66 465.33H978.5C981.32 465.33 983.71 463.03 983.71 460.12V376.16C983.71 373.34 981.41 370.95 978.5 370.95H893.66Z" fill="#ffffff" opacity="1" stroke-width="4" stroke="#000000"></path><path d="M1028.38 566.49C1023.52 566.49 1019.64 562.52 1019.64 557.75V473.8C1019.64 468.95 1023.61 465.06 1028.38 465.06H1112.77C1117.63 465.06 1121.51 469.03 1121.51 473.8V557.75C1121.51 562.61 1117.54 566.49 1112.77 566.49H1028.38ZM1028.38 468.59C1025.55 468.59 1023.17 470.89 1023.17 473.8V557.75C1023.17 560.58 1025.46 562.96 1028.38 562.96H1112.77C1115.6 562.96 1117.98 560.67 1117.98 557.75V473.8C1117.98 470.98 1115.69 468.59 1112.77 468.59H1028.38Z" fill="#ffffff" opacity="1" stroke-width="4" stroke="#000000"></path><path d="M848.64 557.23C843.78 557.23 839.9 553.25 839.9 548.49V494.63C839.9 489.78 843.87 485.89 848.64 485.89H896.57C901.43 485.89 905.31 489.87 905.31 494.63V548.49C905.31 553.34 901.34 557.23 896.57 557.23H848.64ZM848.64 489.43C845.81 489.43 843.43 491.72 843.43 494.63V548.49C843.43 551.31 845.72 553.69 848.64 553.69H896.57C899.4 553.69 901.78 551.4 901.78 548.49V494.63C901.78 491.81 899.49 489.43 896.57 489.43H848.64Z" fill="#ffffff" opacity="1" stroke-width="4" stroke="#000000"></path><path d="M897.72 433.01L897.63 379.34H974.44V433.01H897.72Z" fill="#ffffff" opacity="1" stroke-width="4" stroke="#000000"></path><path d="M898.78 450.32C897.28 448.73 897.28 446.35 898.78 444.76 899.58 443.87 900.63 443.43 901.78 443.43 902.84 443.43 903.81 443.79 904.61 444.49L905.49 445.37 906.37 444.49C907.17 443.7 908.23 443.26 909.29 443.26 910.35 443.26 911.4 443.7 912.2 444.49 913.79 446.08 913.79 448.73 912.2 450.32L905.49 457.03 898.78 450.32Z" fill="#ffffff" opacity="1" stroke-width="4" stroke="#000000"></path><path d="M946.36 518.91C935.42 518.91 926.41 510 926.41 498.96V434.69C926.41 423.75 935.33 414.74 946.36 414.74H1020.78C1031.73 414.74 1040.74 423.66 1040.74 434.69V498.96C1040.74 509.91 1031.82 518.91 1020.78 518.91H946.36Z" fill="#61ccff" opacity="1" stroke-width="4" stroke="#000000"></path><path d="M1010.98 484.22C1010.01 484.22 1009.13 483.86 1008.34 483.33L992.36 470.53C992.09 470.36 991.92 470.09 991.65 469.83 990.95 468.95 990.68 467.89 990.77 466.74 990.86 465.59 991.47 464.62 992.36 463.91L1008.34 451.11C1009.04 450.49 1010.01 450.23 1010.98 450.23 1013.28 450.23 1015.22 452.08 1015.22 454.47V479.98C1015.22 480.95 1014.87 481.83 1014.34 482.63 1013.46 483.6 1012.31 484.22 1010.98 484.22Z" fill="#ffc930" opacity="1" stroke-width="4" stroke="#000000"></path><path d="M962.52 488.72C957.66 488.72 953.78 484.75 953.78 479.98V453.94C953.78 449.08 957.75 445.2 962.52 445.2H990.24C995.09 445.2 998.98 449.17 998.98 453.94V479.89C998.98 484.75 995.01 488.63 990.24 488.63H962.52V488.72Z" fill="#ffc930" opacity="1" stroke-width="4" stroke="#000000"></path></g><g><path d="M326.25 608.07H264.82V762.34H326.25V608.07Z" fill="#ffffff" opacity="1" stroke-width="4" stroke="#000000"></path><path d="M264.82 608.07H276.97L299.36 762.34H264.82V608.07Z" fill="#cecece00" opacity="0" stroke-width="4" stroke="#ffffff00"></path><path d="M593.82 638.11H550.14V762.34H593.82V638.11Z" fill="#cecece" opacity="1" stroke-width="4" stroke="#000000"></path><path d="M550.14 638.11H555.05L571.98 762.34H550.14V638.11Z" fill="#cecece00" opacity="0" stroke-width="4" stroke="#ffffff00"></path><path d="M516.01 608.07H475.06V762.34H516.01V608.07Z" fill="#cecece" opacity="1" stroke-width="4" stroke="#000000"></path><path d="M659.35 608.07H593.82V762.34H659.35V608.07Z" fill="#ffffff" opacity="1" stroke-width="4" stroke="#000000"></path><path d="M694.16 608.07H659.35V762.34H694.16V608.07Z" fill="#cecece" opacity="1" stroke-width="4" stroke="#000000"></path><path d="M659.35 608.07H664.95L679.56 762.34H659.35V608.07Z" fill="#cecece00" opacity="0" stroke-width="4" stroke="#ffffff00"></path><path d="M728.98 608.07H694.16V762.34H728.98V608.07Z" fill="#ffffff" opacity="1" stroke-width="4" stroke="#000000"></path><path d="M437.38 607.72L360.24 741.31 398.07 763.16 475.21 629.56 437.38 607.72Z" fill="#cecece" opacity="1" stroke-width="4" stroke="#000000"></path><path d="M468.23 625.27L475.19 629.37 398.06 762.88 360.24 741.04 368.44 726.98 468.23 625.27Z" fill="#cecece00" opacity="0" stroke-width="4" stroke="#ffffff00"></path><path d="M360.38 584.87H326.25V762.34H360.38V584.87Z" fill="#cecece" opacity="1" stroke-width="4" stroke="#000000"></path><path d="M550.14 584.87H516.01V762.34H550.14V584.87Z" fill="#ffffff" opacity="1" stroke-width="4" stroke="#000000"></path><path d="M308.5 857.63H264.82V1011.89H308.5V857.63Z" fill="#ffffff" opacity="1" stroke-width="4" stroke="#000000"></path><path d="M264.82 857.63H279.56L303.73 1011.89H264.82V857.63Z" fill="#cecece00" opacity="0" stroke-width="4" stroke="#ffffff00"></path><path d="M352.19 857.63H308.5V1011.89H352.19V857.63Z" fill="#cecece" opacity="1" stroke-width="4" stroke="#000000"></path><path d="M386.32 828.96H352.19V1011.89H386.32V828.96Z" fill="#ffffff" opacity="1" stroke-width="4" stroke="#000000"></path><path d="M468.23 828.96H386.32V1011.89H468.23V828.96Z" fill="#cecece" opacity="1" stroke-width="4" stroke="#000000"></path><path d="M386.32 828.96H393.83L413.9 1011.89H386.32V828.96Z" fill="#cecece00" opacity="0" stroke-width="4" stroke="#ffffff00"></path><path d="M509.18 883.56H468.23V1011.89H509.18V883.56Z" fill="#ffffff" opacity="1" stroke-width="4" stroke="#000000"></path><path d="M468.23 883.56H478.33L496.9 1011.89H468.23V883.56Z" fill="#ffffff00" opacity="0" stroke-width="4" stroke="#ffffff00"></path><path d="M619.76 857.63H578.81V1011.89H619.76V857.63Z" fill="#ffffff" opacity="1" stroke-width="4" stroke="#000000"></path><path d="M660.72 857.63H619.76V1011.89H660.72V857.63Z" fill="#cecece" opacity="1" stroke-width="4" stroke="#000000"></path><path d="M578.81 857.63H509.18V1011.89H578.81V857.63Z" fill="#ffffff" opacity="1" stroke-width="4" stroke="#000000"></path><path d="M728.98 857.63H660.72V1011.89H728.98V857.63Z" fill="#cecece" opacity="1" stroke-width="4" stroke="#000000"></path><path d="M264.82 762.34H728.98" stroke="#000000" stroke-width="4" stroke-linecap="round" stroke-linejoin="round" opacity="1" fill="none"></path><path d="M264.82 557.56V1009.84H728.98V557.56" stroke="#000000" stroke-width="4" stroke-linecap="round" stroke-linejoin="round" opacity="1" fill="none"></path><path d="M660.72 857.63H666.59L690.89 1011.89H660.72V857.63Z" fill="#cecece00" opacity="0" stroke-width="4" stroke="#ffffff00"></path></g><g><path d="M784.89 769.09L784.1 758.14C818.68 722.45 842.15 700.88 853.89 693.9 888.31 673.44 934.47 658.21 952.87 658.21 958.26 658.21 961.28 659.48 961.59 662.18 963.02 673.44 926.06 690.73 920.67 693.11 931.46 698.82 928.92 712.14 928.44 714.05 940.34 724.67 933.68 735.3 932.57 736.89 933.99 738.47 943.04 749.74 930.66 762.11 923.05 769.72 915.75 771.31 911.15 771.31 908.3 771.31 906.39 770.67 905.76 770.52 893.7 790.82 871.18 797.16 869.12 797.64 868.64 798.75 865.31 806.36 859.92 817.31L848.97 819.85 784.89 769.09Z" fill="#e59763" opacity="1" stroke-width="4" stroke="#000000"></path><path d="M475.1 703.74V703.42C470.34 682.64 463.2 650.12 456.22 613.64 450.36 582.39 454.32 556.69 467.96 539.24 480.18 523.54 499.53 514.82 525.38 513.07 527.92 512.91 530.3 512.91 532.68 512.91 582.96 512.91 601.05 547.02 611.36 576.84 612.94 581.6 614.69 586.36 616.12 591.11 618.02 591.27 630.39 592.54 631.98 598.73 633.56 604.76 625.32 613.48 624.05 614.75 629.92 634.26 631.66 645.68 632.14 652.02 632.45 656.78 632.29 668.68 623.57 678.2 615.8 686.6 603.43 690.73 586.77 690.73 582.17 690.73 577.25 690.41 572.18 689.78L574.71 704.53 475.1 703.74Z" fill="#e59763" opacity="1" stroke-width="4" stroke="#000000"></path><path d="M550.29 683.91C550.29 683.91 562.66 688.19 569.64 689.3L572.18 689.78 574.56 703.89 566.78 713.41 550.29 683.91Z" fill="#e5976300" opacity="0" stroke-width="4" stroke="#ffffff00"></path><path d="M346.46 957.53C341.06 925.65 360.26 836.18 396.9 782.41 431.95 731.02 474.94 721.34 479.22 720.55 478.91 719.12 477.32 712.94 475.1 703.42L474.94 703.1 574.4 702.78 576.78 715.95C598.51 717.06 619.6 721.66 639.91 729.59 671.16 741.96 725.88 810.49 730.01 815.56 732.7 812.55 757.13 785.74 784.1 757.98L784.25 757.83 860.08 816.99 859.92 817.31C841.04 855.54 791.87 944.36 744.12 946.11 743.01 946.11 741.74 946.11 740.63 946.11 709.54 946.11 681.31 930.56 663.07 917.56 645.3 904.87 633.4 892.02 631.03 889.48L607.23 987.35 447.98 988.3C447.98 988.3 434.97 1012.73 407.84 1012.73 371.84 1012.73 352.33 992.59 346.46 957.53Z" fill="#ffa0dc" opacity="1" stroke-width="4" stroke="#000000"></path><path d="M380.72 1007.81C388.49 1010.99 397.38 1012.73 407.84 1012.73 434.97 1012.73 447.98 988.3 447.98 988.3L430.69 907.25 430.37 907.56C421.01 913.59 418.63 926.44 415.78 941.51 411.65 962.77 406.58 988.94 380.72 1007.81Z" fill="#ffa0dc00" opacity="0" stroke-width="4" stroke="#ffffff00"></path><path d="M612.63 869.34L631.03 889.48 607.23 987.35 564.88 987.67 612.63 869.34Z" fill="#ffa0dc00" opacity="0" stroke-width="4" stroke="#ffffff00"></path><path d="M333.29 767.18V766.87C328.85 707.23 360.57 685.65 391.19 664.56 414.82 648.38 437.19 633.15 442.74 601.74 454.16 537.98 473.51 516.88 525.54 511.01 529.03 510.69 532.52 510.38 536.01 510.38 575.98 510.38 594.38 537.02 601.68 553.2 601.68 553.2 598.83 572.24 570.59 572.24 568.53 572.24 566.31 572.08 564.09 571.92 568.53 585.88 566.15 601.11 557.58 613L557.42 613.16 557.27 613C557.11 613 540.29 606.82 525.22 606.82 512.69 606.82 504.92 610.94 502.07 619.19 493.82 643.78 531.73 669.31 532.05 669.63H532.2V669.79C532.36 670.27 544.74 722.77 525.86 766.71L525.7 766.87H333.29V767.18Z" fill="#231f20" opacity="1" stroke-width="4" stroke="#000000"></path><path d="M426.4 551.46C462.93 551.46 492.55 521.84 492.55 485.31 492.55 448.78 462.93 419.17 426.4 419.17 389.87 419.17 360.26 448.78 360.26 485.31 360.26 521.84 389.87 551.46 426.4 551.46Z" fill="#231f20" opacity="1" stroke-width="4" stroke="#000000"></path><path d="M528.71 686.29C538.53 686.29 546.48 678.34 546.48 668.52 546.48 658.7 538.53 650.76 528.71 650.76 518.91 650.76 510.95 658.7 510.95 668.52 510.95 678.34 518.91 686.29 528.71 686.29Z" fill="#ffffff" opacity="1" stroke-width="4" stroke="#000000"></path><path d="M614.69 632.2C612.15 633.94 604.22 634.26 599.3 628.71" stroke="#000000" stroke-width="4" stroke-linecap="round" stroke-linejoin="round" opacity="1" fill="none"></path><path d="M599.3 606.5C596.6 606.5 594.54 604.28 594.54 601.74 594.54 599.2 596.76 596.98 599.3 596.98 602 596.98 604.06 599.2 604.06 601.74 604.06 604.28 601.84 606.5 599.3 606.5Z" fill="#231f20" opacity="1" stroke-width="4" stroke="#000000"></path><path d="M572.97 690.09C562.34 688.67 553.94 686.29 553.94 686.29" stroke="#000000" stroke-width="4" stroke-linecap="round" stroke-linejoin="round" opacity="1" fill="none"></path><path d="M547.75 643.14L533.47 636.8" stroke="#000000" stroke-width="4" stroke-linecap="round" stroke-linejoin="round" opacity="1" fill="none"></path><path d="M412.92 947.7L437.03 939.76" stroke="#000000" stroke-width="4" stroke-linecap="round" stroke-linejoin="round" opacity="1" fill="none"></path><path d="M630.87 889.16C619.13 877.9 608.03 865.21 608.03 865.21" stroke="#000000" stroke-width="4" stroke-linecap="round" stroke-linejoin="round" opacity="1" fill="none"></path><path d="M730.01 816.2V843.8" stroke="#000000" stroke-width="4" stroke-linecap="round" stroke-linejoin="round" opacity="1" fill="none"></path><path d="M784.25 758.3L859.44 817.15" stroke="#000000" stroke-width="4" stroke-linecap="round" stroke-linejoin="round" opacity="1" fill="none"></path><path d="M919.72 693.11C909.72 692.63 899.89 693.9 890.37 697.07" stroke="#000000" stroke-width="4" stroke-linecap="round" stroke-linejoin="round" opacity="1" fill="none"></path><path d="M927.97 714.05C915.75 711.35 898.3 717.69 898.3 717.69" stroke="#000000" stroke-width="4" stroke-linecap="round" stroke-linejoin="round" opacity="1" fill="none"></path><path d="M932.09 736.89C918.92 735.14 904.65 739.9 904.65 739.9" stroke="#000000" stroke-width="4" stroke-linecap="round" stroke-linejoin="round" opacity="1" fill="none"></path><path d="M426.4 892.18L447.82 987.35" stroke="#000000" stroke-width="4" stroke-linecap="round" stroke-linejoin="round" opacity="1" fill="none"></path></g><g><path d="M962.45 948.4L1009.79 802.81C1016.83 781.22 1040.04 763.67 1061.63 763.67H1279.26C1300.85 763.67 1312.75 781.22 1305.7 802.81L1250.05 974.03 954.14 974.03H803.36C790.66 974.03 780.27 963.64 780.27 950.94V948.4H962.45Z" fill="#9e76dd" stroke="#000000" stroke-width="4" opacity="1"></path><path d="M1129.38 890.86C1119.9 884.28 1120.3 867.31 1130.27 852.96 1140.24 838.62 1156 832.33 1165.48 838.91 1174.96 845.49 1174.57 862.46 1164.59 876.81 1154.63 891.16 1138.86 897.46 1129.38 890.86Z" fill="#ffffff" stroke="#000000" stroke-width="4" opacity="1"></path></g><g><path d="M1455.6 975.2H143.74L143.74 1021.73H1455.6L1455.6 975.2Z" fill="#cecece" opacity="1" stroke-width="4" stroke="#000000"></path></g></svg>